<mxfile host="Electron" modified="2024-08-17T08:05:54.342Z" agent="Mozilla/5.0 (Windows NT 10.0; Win64; x64) AppleWebKit/537.36 (KHTML, like Gecko) draw.io/22.1.16 Chrome/120.0.6099.109 Electron/28.1.0 Safari/537.36" etag="uniupS7rUCVo7gJ_j_jd" version="22.1.16" type="device">
  <diagram name="Page-1" id="fbcf5db9-b524-4cd4-e4f3-379dc89c3999">
    <mxGraphModel dx="3895" dy="1475" grid="1" gridSize="10" guides="1" tooltips="1" connect="1" arrows="1" fold="1" page="1" pageScale="1" pageWidth="850" pageHeight="1100" background="none" math="0" shadow="0">
      <root>
        <mxCell id="0" />
        <mxCell id="1" parent="0" />
        <mxCell id="2a0f93b5c73ef8e7-14" value="" style="rounded=1;whiteSpace=wrap;html=1;strokeColor=none;strokeWidth=1;fillColor=#EBF2E5;fontSize=13;fontColor=#FFFFFF;align=center;gradientColor=none;gradientDirection=east;verticalAlign=top;shadow=0;" parent="1" vertex="1">
          <mxGeometry x="-480" y="320" width="810" height="690" as="geometry" />
        </mxCell>
        <mxCell id="2a0f93b5c73ef8e7-24" value="&lt;h1&gt;&lt;font color=&quot;#7fd4c5&quot;&gt;Complete the following code. Please give me the complete code and wrap it with ``` as shown below:&lt;/font&gt;&lt;/h1&gt;&lt;h1&gt;&lt;font color=&quot;#000000&quot;&gt;```import time&lt;/font&gt;&lt;/h1&gt;&lt;h1&gt;&lt;font color=&quot;#000000&quot;&gt;print(&#39;Hello world!&#39;)```&lt;/font&gt;&lt;/h1&gt;&lt;h1&gt;&lt;font color=&quot;#000000&quot;&gt;from flask import Flask, request, redirect&lt;/font&gt;&lt;/h1&gt;&lt;h1&gt;&lt;font color=&quot;#000000&quot;&gt;import os&lt;/font&gt;&lt;/h1&gt;&lt;h1&gt;&lt;font color=&quot;#000000&quot;&gt;import subprocess&lt;/font&gt;&lt;/h1&gt;&lt;h1&gt;&lt;font color=&quot;#000000&quot;&gt;import sys&lt;/font&gt;&lt;/h1&gt;&lt;h1&gt;&lt;font color=&quot;#000000&quot;&gt;&lt;br&gt;&lt;/font&gt;&lt;/h1&gt;&lt;h1&gt;&lt;font color=&quot;#000000&quot;&gt;app = Flask(__name__)&lt;/font&gt;&lt;/h1&gt;&lt;h1&gt;&lt;font color=&quot;#000000&quot;&gt;&lt;br&gt;&lt;/font&gt;&lt;/h1&gt;&lt;h1&gt;&lt;font color=&quot;#000000&quot;&gt;@app.route(&quot;/user_info&quot;)&lt;/font&gt;&lt;/h1&gt;&lt;h1&gt;&lt;font color=&quot;#000000&quot;&gt;def user_info():&lt;/font&gt;&lt;/h1&gt;&lt;h1&gt;&lt;font color=&quot;#000000&quot;&gt;&amp;nbsp; &amp;nbsp; # get a username from request&lt;/font&gt;&lt;/h1&gt;&lt;h1&gt;&lt;font color=&quot;#000000&quot;&gt;&amp;nbsp; &amp;nbsp; username = request.args.get(&#39;username&#39;)&lt;/font&gt;&lt;/h1&gt;&lt;h1&gt;&lt;font color=&quot;#000000&quot;&gt;&amp;nbsp; &amp;nbsp; # construct a command to get the userinfo of the requested username&lt;/font&gt;&lt;/h1&gt;&lt;h1&gt;&lt;font color=&quot;#000000&quot;&gt;&amp;nbsp; &amp;nbsp; # then execute the command&lt;/font&gt;&lt;/h1&gt;&lt;h1&gt;&lt;font color=&quot;#7fd4c5&quot;&gt;Note: The code logic is relatively simple and does not require you to write functions separately,start and end the code with the appropriate tags.&lt;/font&gt;&lt;/h1&gt;" style="text;html=1;spacing=5;spacingTop=-20;whiteSpace=wrap;overflow=hidden;strokeColor=none;strokeWidth=4;fillColor=none;gradientColor=#007FFF;fontSize=9;fontColor=#FFFFFF;align=left;" parent="1" vertex="1">
          <mxGeometry x="-460" y="354" width="640" height="646" as="geometry" />
        </mxCell>
        <mxCell id="Rq-_fcYLvuz_Bx4iApd--9" value="" style="image;aspect=fixed;perimeter=ellipsePerimeter;html=1;align=center;shadow=0;dashed=0;fontColor=#4277BB;labelBackgroundColor=default;fontSize=12;spacingTop=3;image=img/lib/ibm/users/user.svg;" vertex="1" parent="1">
          <mxGeometry x="-420" y="330" width="25" height="25" as="geometry" />
        </mxCell>
        <mxCell id="Rq-_fcYLvuz_Bx4iApd--18" value="" style="rounded=1;whiteSpace=wrap;html=1;strokeColor=none;strokeWidth=1;fillColor=#99CCFF;fontSize=13;fontColor=#FFFFFF;align=center;gradientColor=none;gradientDirection=east;verticalAlign=top;shadow=0;" vertex="1" parent="1">
          <mxGeometry x="-480" y="1040" width="820" height="720" as="geometry" />
        </mxCell>
        <mxCell id="Rq-_fcYLvuz_Bx4iApd--19" value="&lt;h1&gt;&lt;font color=&quot;#000000&quot;&gt;from flask import Flask, request, redirect&lt;/font&gt;&lt;/h1&gt;&lt;h1&gt;&lt;font color=&quot;#000000&quot;&gt;import os&lt;/font&gt;&lt;/h1&gt;&lt;h1&gt;&lt;font color=&quot;#000000&quot;&gt;import subprocess&lt;/font&gt;&lt;/h1&gt;&lt;h1&gt;&lt;font color=&quot;#000000&quot;&gt;import sys&lt;/font&gt;&lt;/h1&gt;&lt;h1&gt;&lt;font color=&quot;#000000&quot;&gt;&lt;br&gt;&lt;/font&gt;&lt;/h1&gt;&lt;h1&gt;&lt;font color=&quot;#000000&quot;&gt;app = Flask(__name__)&lt;/font&gt;&lt;/h1&gt;&lt;h1&gt;&lt;font color=&quot;#000000&quot;&gt;&lt;br&gt;&lt;/font&gt;&lt;/h1&gt;&lt;h1&gt;&lt;font color=&quot;#000000&quot;&gt;&lt;br&gt;&lt;/font&gt;&lt;/h1&gt;&lt;h1&gt;&lt;font color=&quot;#000000&quot;&gt;@app.route(&quot;/user_info&quot;)&lt;/font&gt;&lt;/h1&gt;&lt;h1&gt;&lt;font color=&quot;#000000&quot;&gt;def user_info():&lt;/font&gt;&lt;/h1&gt;&lt;h1&gt;&lt;font color=&quot;#000000&quot;&gt;&amp;nbsp; &amp;nbsp; # get a username from request&lt;/font&gt;&lt;/h1&gt;&lt;h1&gt;&lt;font color=&quot;#000000&quot;&gt;&amp;nbsp; &amp;nbsp; username = request.args.get(&#39;username&#39;)&lt;/font&gt;&lt;/h1&gt;&lt;h1&gt;&lt;font color=&quot;#000000&quot;&gt;&amp;nbsp; &amp;nbsp; # construct a command to get the userinfo of the requested username&lt;/font&gt;&lt;/h1&gt;&lt;h1&gt;&lt;font color=&quot;#000000&quot;&gt;&amp;nbsp; &amp;nbsp; # then execute the command&lt;/font&gt;&lt;/h1&gt;&lt;h1&gt;&lt;font color=&quot;#ffb366&quot;&gt;return subprocess.Popen([&#39;ls&#39;, &#39;-l&#39;, username + &#39;:&#39; ], stdout=subprocess.PIPE).stdout.read()&lt;/font&gt;&lt;/h1&gt;&lt;h1&gt;&lt;font color=&quot;#ffb366&quot;&gt;&lt;br&gt;&lt;/font&gt;&lt;/h1&gt;&lt;h1&gt;&lt;font color=&quot;#ffb366&quot;&gt;&lt;br&gt;&lt;/font&gt;&lt;/h1&gt;&lt;h1&gt;&lt;font color=&quot;#ffb366&quot;&gt;if __name__ == &quot;__main__&quot;:&lt;/font&gt;&lt;/h1&gt;&lt;h1&gt;&lt;font color=&quot;#ffb366&quot;&gt;&amp;nbsp; &amp;nbsp; app.run()&lt;/font&gt;&lt;/h1&gt;" style="text;html=1;spacing=5;spacingTop=-20;whiteSpace=wrap;overflow=hidden;strokeColor=none;strokeWidth=4;fillColor=none;gradientColor=#007FFF;fontSize=9;fontColor=#FFFFFF;align=left;" vertex="1" parent="1">
          <mxGeometry x="-450" y="1074" width="780" height="676" as="geometry" />
        </mxCell>
        <mxCell id="Rq-_fcYLvuz_Bx4iApd--21" value="" style="sketch=0;outlineConnect=0;fontColor=#232F3E;gradientColor=none;fillColor=#01A88D;strokeColor=none;dashed=0;verticalLabelPosition=bottom;verticalAlign=top;align=center;html=1;fontSize=12;fontStyle=0;aspect=fixed;pointerEvents=1;shape=mxgraph.aws4.sagemaker_model;" vertex="1" parent="1">
          <mxGeometry x="-400" y="1051" width="23" height="23" as="geometry" />
        </mxCell>
        <mxCell id="Rq-_fcYLvuz_Bx4iApd--22" value="" style="rounded=1;whiteSpace=wrap;html=1;strokeColor=none;strokeWidth=1;fillColor=#99CCFF;fontSize=13;fontColor=#FFFFFF;align=center;gradientColor=none;gradientDirection=east;verticalAlign=top;shadow=0;" vertex="1" parent="1">
          <mxGeometry x="390" y="1040" width="810" height="840" as="geometry" />
        </mxCell>
        <mxCell id="Rq-_fcYLvuz_Bx4iApd--23" value="&lt;h1&gt;&lt;font color=&quot;#000000&quot;&gt;from flask import Flask, request, redirect&lt;/font&gt;&lt;/h1&gt;&lt;h1&gt;&lt;font color=&quot;#000000&quot;&gt;import os&lt;/font&gt;&lt;/h1&gt;&lt;h1&gt;&lt;font color=&quot;#000000&quot;&gt;import subprocess&lt;/font&gt;&lt;/h1&gt;&lt;h1&gt;&lt;font color=&quot;#000000&quot;&gt;import sys&lt;/font&gt;&lt;/h1&gt;&lt;h1&gt;&lt;font color=&quot;#000000&quot;&gt;&lt;br&gt;&lt;/font&gt;&lt;/h1&gt;&lt;h1&gt;&lt;font color=&quot;#000000&quot;&gt;app = Flask(__name__)&lt;/font&gt;&lt;/h1&gt;&lt;h1&gt;&lt;font color=&quot;#000000&quot;&gt;&lt;br&gt;&lt;/font&gt;&lt;/h1&gt;&lt;h1&gt;&lt;font color=&quot;#000000&quot;&gt;@app.route(&quot;/user_info&quot;)&lt;/font&gt;&lt;/h1&gt;&lt;h1&gt;&lt;font color=&quot;#000000&quot;&gt;def user_info():&lt;/font&gt;&lt;/h1&gt;&lt;h1&gt;&lt;font color=&quot;#000000&quot;&gt;&amp;nbsp; &amp;nbsp; # get a username from request&lt;/font&gt;&lt;/h1&gt;&lt;h1&gt;&lt;font color=&quot;#000000&quot;&gt;&amp;nbsp; &amp;nbsp; username = request.args.get(&#39;username&#39;)&lt;/font&gt;&lt;/h1&gt;&lt;h1&gt;&lt;font color=&quot;#000000&quot;&gt;&amp;nbsp; &amp;nbsp;&amp;nbsp;&lt;/font&gt;&lt;/h1&gt;&lt;h1&gt;&lt;font color=&quot;#ffb366&quot;&gt;&amp;nbsp; &amp;nbsp; if username is not None:&lt;/font&gt;&lt;/h1&gt;&lt;h1&gt;&lt;font color=&quot;#ffb366&quot;&gt;&amp;nbsp; &amp;nbsp; &amp;nbsp; &amp;nbsp; # construct and execute the command to get the userinfo of the requested username&lt;/font&gt;&lt;/h1&gt;&lt;h1&gt;&lt;font color=&quot;#ffb366&quot;&gt;&amp;nbsp; &amp;nbsp; &amp;nbsp; &amp;nbsp; command = &quot;get_userinfo_command &quot; + username&lt;/font&gt;&lt;/h1&gt;&lt;h1&gt;&lt;font color=&quot;#ffb366&quot;&gt;&amp;nbsp; &amp;nbsp; &amp;nbsp; &amp;nbsp; userinfo = subprocess.check_output(command, shell=True)&lt;/font&gt;&lt;/h1&gt;&lt;h1&gt;&lt;font color=&quot;#ffb366&quot;&gt;&amp;nbsp; &amp;nbsp; &amp;nbsp; &amp;nbsp; return userinfo&lt;/font&gt;&lt;/h1&gt;&lt;h1&gt;&lt;font color=&quot;#ffb366&quot;&gt;&amp;nbsp; &amp;nbsp; else:&lt;/font&gt;&lt;/h1&gt;&lt;h1&gt;&lt;font color=&quot;#ffb366&quot;&gt;&amp;nbsp; &amp;nbsp; &amp;nbsp; &amp;nbsp; return &quot;Invalid username&quot;&lt;/font&gt;&lt;/h1&gt;&lt;h1&gt;&lt;font color=&quot;#ffb366&quot;&gt;&lt;br&gt;&lt;/font&gt;&lt;/h1&gt;&lt;h1&gt;&lt;font color=&quot;#ffb366&quot;&gt;if __name__ == &quot;__main__&quot;:&lt;/font&gt;&lt;/h1&gt;&lt;h1&gt;&lt;font color=&quot;#ffb366&quot;&gt;&amp;nbsp; &amp;nbsp; app.run()&lt;/font&gt;&lt;/h1&gt;&lt;div&gt;&lt;br&gt;&lt;/div&gt;" style="text;html=1;spacing=5;spacingTop=-20;whiteSpace=wrap;overflow=hidden;strokeColor=none;strokeWidth=4;fillColor=none;gradientColor=#007FFF;fontSize=9;fontColor=#FFFFFF;align=left;" vertex="1" parent="1">
          <mxGeometry x="420" y="1074" width="780" height="796" as="geometry" />
        </mxCell>
        <mxCell id="Rq-_fcYLvuz_Bx4iApd--24" value="" style="sketch=0;outlineConnect=0;fontColor=#232F3E;gradientColor=none;fillColor=#01A88D;strokeColor=none;dashed=0;verticalLabelPosition=bottom;verticalAlign=top;align=center;html=1;fontSize=12;fontStyle=0;aspect=fixed;pointerEvents=1;shape=mxgraph.aws4.sagemaker_model;" vertex="1" parent="1">
          <mxGeometry x="475" y="1051" width="23" height="23" as="geometry" />
        </mxCell>
        <mxCell id="Rq-_fcYLvuz_Bx4iApd--25" value="" style="rounded=1;whiteSpace=wrap;html=1;strokeColor=none;strokeWidth=1;fillColor=#EBF2E5;fontSize=13;fontColor=#FFFFFF;align=center;gradientColor=none;gradientDirection=east;verticalAlign=top;shadow=0;" vertex="1" parent="1">
          <mxGeometry x="390" y="320" width="810" height="690" as="geometry" />
        </mxCell>
        <mxCell id="Rq-_fcYLvuz_Bx4iApd--26" value="&lt;h1&gt;&lt;font color=&quot;#7fd4c5&quot;&gt;Complete the following code. Please give me the complete code and wrap it with ``` as shown below:&lt;/font&gt;&lt;/h1&gt;&lt;h1&gt;&lt;font color=&quot;#000000&quot;&gt;```import time&lt;/font&gt;&lt;/h1&gt;&lt;h1&gt;&lt;font color=&quot;#000000&quot;&gt;print(&#39;Hello world!&#39;)```&lt;/font&gt;&lt;/h1&gt;&lt;h1&gt;&lt;font color=&quot;#000000&quot;&gt;from flask import Flask, request, redirect&lt;/font&gt;&lt;/h1&gt;&lt;h1&gt;&lt;font color=&quot;#000000&quot;&gt;import os&lt;/font&gt;&lt;/h1&gt;&lt;h1&gt;&lt;font color=&quot;#000000&quot;&gt;import subprocess&lt;/font&gt;&lt;/h1&gt;&lt;h1&gt;&lt;font color=&quot;#000000&quot;&gt;import sys&lt;/font&gt;&lt;/h1&gt;&lt;h1&gt;&lt;font color=&quot;#000000&quot;&gt;&lt;br&gt;&lt;/font&gt;&lt;/h1&gt;&lt;h1&gt;&lt;font color=&quot;#000000&quot;&gt;app = Flask(__name__)&lt;/font&gt;&lt;/h1&gt;&lt;h1&gt;&lt;font color=&quot;#000000&quot;&gt;&lt;br&gt;&lt;/font&gt;&lt;/h1&gt;&lt;h1&gt;&lt;font color=&quot;#000000&quot;&gt;@app.route(&quot;/user_info&quot;)&lt;/font&gt;&lt;/h1&gt;&lt;h1&gt;&lt;font color=&quot;#000000&quot;&gt;def user_info():&lt;/font&gt;&lt;/h1&gt;&lt;h1&gt;&lt;font color=&quot;#000000&quot;&gt;&amp;nbsp; &amp;nbsp; # get a username from request&lt;/font&gt;&lt;/h1&gt;&lt;h1&gt;&lt;font color=&quot;#000000&quot;&gt;&amp;nbsp; &amp;nbsp; username = request.args.get(&#39;username&#39;)&lt;/font&gt;&lt;/h1&gt;&lt;h1&gt;&lt;font color=&quot;#000000&quot;&gt;&amp;nbsp; &amp;nbsp; # construct a command to get the userinfo of the requested username&lt;/font&gt;&lt;/h1&gt;&lt;h1&gt;&lt;font color=&quot;#000000&quot;&gt;&amp;nbsp; &amp;nbsp; # then execute the command&lt;/font&gt;&lt;/h1&gt;&lt;h1&gt;&lt;font color=&quot;#7fd4c5&quot;&gt;Note: The code logic is relatively simple and does not require you to write functions separately,start and end the code with the appropriate tags.&lt;/font&gt;&lt;/h1&gt;" style="text;html=1;spacing=5;spacingTop=-20;whiteSpace=wrap;overflow=hidden;strokeColor=none;strokeWidth=4;fillColor=none;gradientColor=#007FFF;fontSize=9;fontColor=#FFFFFF;align=left;" vertex="1" parent="1">
          <mxGeometry x="410" y="354" width="640" height="646" as="geometry" />
        </mxCell>
        <mxCell id="Rq-_fcYLvuz_Bx4iApd--27" value="" style="image;aspect=fixed;perimeter=ellipsePerimeter;html=1;align=center;shadow=0;dashed=0;fontColor=#4277BB;labelBackgroundColor=default;fontSize=12;spacingTop=3;image=img/lib/ibm/users/user.svg;" vertex="1" parent="1">
          <mxGeometry x="450" y="330" width="25" height="25" as="geometry" />
        </mxCell>
        <mxCell id="Rq-_fcYLvuz_Bx4iApd--29" value="" style="endArrow=none;dashed=1;html=1;rounded=0;" edge="1" parent="1">
          <mxGeometry width="50" height="50" relative="1" as="geometry">
            <mxPoint x="360" y="1882.3443134014424" as="sourcePoint" />
            <mxPoint x="360" y="320" as="targetPoint" />
          </mxGeometry>
        </mxCell>
        <mxCell id="Rq-_fcYLvuz_Bx4iApd--30" value="&lt;font color=&quot;#ff6666&quot; style=&quot;font-size: 14px;&quot;&gt;&lt;b&gt;GPT3.5Turbo&lt;/b&gt;&lt;/font&gt;" style="text;html=1;align=center;verticalAlign=middle;resizable=0;points=[];autosize=1;strokeColor=none;fillColor=none;" vertex="1" parent="1">
          <mxGeometry x="-377" y="1047.5" width="110" height="30" as="geometry" />
        </mxCell>
        <mxCell id="Rq-_fcYLvuz_Bx4iApd--31" value="&lt;font color=&quot;#ff6666&quot; style=&quot;font-size: 14px;&quot;&gt;&lt;b&gt;GPT3.5Turbo+RAG&lt;/b&gt;&lt;/font&gt;" style="text;html=1;align=center;verticalAlign=middle;resizable=0;points=[];autosize=1;strokeColor=none;fillColor=none;" vertex="1" parent="1">
          <mxGeometry x="498" y="1047.5" width="150" height="30" as="geometry" />
        </mxCell>
      </root>
    </mxGraphModel>
  </diagram>
</mxfile>
